<svg xmlns="http://www.w3.org/2000/svg" viewBox="0 0 512 512">
  <!-- Background circle with wobbly edge -->
  <path d="M256 20 C380 15, 495 120, 492 256 C498 385, 390 498, 256 492 C125 498, 18 388, 20 256 C15 125, 130 18, 256 20Z" fill="#fdfbf7" stroke="#2d2d2d" stroke-width="16"/>

  <!-- Outer flame (orange) -->
  <path d="M256 80
    C280 140, 360 180, 370 280
    C380 350, 340 420, 256 450
    C172 420, 132 350, 142 280
    C152 180, 232 140, 256 80Z"
    fill="#ff6b35" stroke="#2d2d2d" stroke-width="8"/>

  <!-- Inner flame (red/accent) -->
  <path d="M256 160
    C270 200, 320 230, 325 300
    C330 350, 300 400, 256 420
    C212 400, 182 350, 187 300
    C192 230, 242 200, 256 160Z"
    fill="#ff4d4d" stroke="#2d2d2d" stroke-width="6"/>

  <!-- Core flame (yellow/bright) -->
  <path d="M256 250
    C262 275, 290 290, 292 330
    C294 360, 278 390, 256 400
    C234 390, 218 360, 220 330
    C222 290, 250 275, 256 250Z"
    fill="#ffdd57" stroke="#2d2d2d" stroke-width="4"/>
</svg>
